<svg id="Component_16_86" data-name="Component 16 – 86" xmlns="http://www.w3.org/2000/svg" width="196" height="100" viewBox="0 0 196 100">
  <g id="Rectangle_535" data-name="Rectangle 535" fill="#fff" stroke="#000" stroke-width="1" opacity="0">
    <rect width="196" height="100" rx="20" stroke="none"/>
    <rect x="0.5" y="0.5" width="195" height="99" rx="19.5" fill="none"/>
  </g>
  <g id="Group_635" data-name="Group 635" transform="translate(58.318 23.806)">
    <g id="Group_634" data-name="Group 634" transform="translate(0 0)">
      <path id="Path_1047" data-name="Path 1047" d="M59.011,42.595V30.874h3.781l-.234,9.013,5.257.025v2.682Zm9.836-3.654h3.678a1.471,1.471,0,0,0,.551.916,2.061,2.061,0,0,0,1.189.28,2.02,2.02,0,0,0,1.041-.228.693.693,0,0,0,.38-.625q0-.637-1.587-1.035l-.489-.12c-.868-.223-1.56-.423-2.073-.608a5.141,5.141,0,0,1-1.124-.513A3.178,3.178,0,0,1,69.4,35.845a3.385,3.385,0,0,1-.341-1.543,3.24,3.24,0,0,1,1.318-2.739,7.152,7.152,0,0,1,7.2-.043,3.63,3.63,0,0,1,1.471,2.727H75.457A1.111,1.111,0,0,0,75,33.475a1.865,1.865,0,0,0-1.061-.254,1.64,1.64,0,0,0-.9.2.684.684,0,0,0-.295.605c0,.386.516.712,1.551.971.093.028.161.046.207.056.151.035.376.093.678.166a10.045,10.045,0,0,1,2.685.939A3.354,3.354,0,0,1,79,37.336a3.209,3.209,0,0,1,.36,1.559A3.531,3.531,0,0,1,78,41.877a6.315,6.315,0,0,1-3.9,1.044,5.985,5.985,0,0,1-3.713-1.044,3.942,3.942,0,0,1-1.539-2.936M48.475,42.595V30.874h3.78l-.233,9.013,5.257.025v2.682Zm-11.693,0V30.874h9.405v2.681H40.562v1.69h4.756v2.689H40.562v1.979h5.857v2.682ZM23.6,30.874h3.868l1.98,7.568,2.128-7.568h3.716L31.325,42.595H27.56ZM12.175,42.595l4.14-11.721h3.828l4.137,11.721H20.532l-.439-1.551H16.347l-.456,1.551Zm4.858-4.009h2.373l-1.174-4.059ZM0,42.595V30.874H3.687v3.979H7.122V30.874h3.687V42.595H7.122V38.053H3.687v4.542Z" transform="translate(0 9.468)" fill="#fe0000"/>
      <path id="Path_1048" data-name="Path 1048" d="M27.907,16.911c-.523,2.338-1.28,6.348-2.872,7.837a1.431,1.431,0,0,1-1.311.451,1.454,1.454,0,0,1-.643-.379,4.913,4.913,0,0,1-.868-1.235,12.659,12.659,0,0,1-1.349-4.279,2.363,2.363,0,0,1,1.3-2.667,5.033,5.033,0,0,1,2.28-.014c1.147.135,2.314.193,3.466.286" transform="translate(6.449 5.11)" fill="#fe0000"/>
      <path id="Path_1049" data-name="Path 1049" d="M23.27,9.215a1.75,1.75,0,0,1-2.059-1.2,5.485,5.485,0,0,1,.482-3.361,15.608,15.608,0,0,1,.879-1.783c.394-.7.9-1.623,1.838-1.645,1.306-.03,2.343,2.857,2.651,3.782a18.5,18.5,0,0,1,.815,3.839Z" transform="translate(6.534 0.38)" fill="#fe0000"/>
      <path id="Path_1050" data-name="Path 1050" d="M22.515,3.762C21.47,5.906,20.739,8.9,22.6,9.925c1.067.591,2.2.309,3.341.21,2.092-.185,3.611-.181,5.879-.355a8.036,8.036,0,0,0,4.4-1.27A4.585,4.585,0,0,0,38.27,5.138c.2-1.766-.016-3.818.677-4.69.786-.988,2.259-.1,3.1.364A16.725,16.725,0,0,1,50.556,13.1a18.24,18.24,0,0,1-.491,7.967,17.5,17.5,0,0,1-7.62,10.084c-.828.475-2.415,1.549-3.272.618a2.981,2.981,0,0,1-.583-1.876c-.062-4.12-.369-6.666-4.075-8.021a12.091,12.091,0,0,0-3.743-.445c-2.139-.117-4.266-.295-6.4-.474a3.175,3.175,0,0,0-2.021.321c-1.556.952-1.853,3.466-.221,6.666-6.186-5.889-5.962-17.65.384-24.177" transform="translate(5.458 0)" fill="#fe0000"/>
    </g>
  </g>
</svg>
