<svg id="Component_16_88" data-name="Component 16 – 88" xmlns="http://www.w3.org/2000/svg" xmlns:xlink="http://www.w3.org/1999/xlink" width="196" height="100" viewBox="0 0 196 100">
  <defs>
    <clipPath id="clip-path">
      <rect id="Rectangle_5041" data-name="Rectangle 5041" width="126.185" height="15.768" transform="translate(0 0)" fill="none"/>
    </clipPath>
  </defs>
  <g id="Rectangle_535" data-name="Rectangle 535" fill="#fff" stroke="#000" stroke-width="1" opacity="0">
    <rect width="196" height="100" rx="20" stroke="none"/>
    <rect x="0.5" y="0.5" width="195" height="99" rx="19.5" fill="none"/>
  </g>
  <g id="Group_22156" data-name="Group 22156" transform="translate(35 42.5)">
    <g id="Group_22156-2" data-name="Group 22156" clip-path="url(#clip-path)">
      <path id="Path_24712" data-name="Path 24712" d="M122.256,5.256a1.836,1.836,0,1,1,1.872,1.872A1.859,1.859,0,0,1,122.256,5.256Z" fill="none" stroke="#1a1818" stroke-miterlimit="10" stroke-width="0.514"/>
      <path id="Path_24713" data-name="Path 24713" d="M123.336,6.264h.432V5.472h.36c.36,0,.36.144.36.432v.36h.5V6.192c-.072,0-.072-.072-.072-.36,0-.36-.144-.432-.288-.5a.541.541,0,0,0,.36-.5.58.58,0,0,0-.648-.5h-1.008Zm.432-1.08V4.608h.5a.264.264,0,0,1,.288.288.329.329,0,0,1-.36.288Z" fill="#1a1818" fill-rule="evenodd"/>
      <path id="Path_24714" data-name="Path 24714" d="M95.544,0,86.9,15.768h21.168l1.368-2.52H97.488l2.232-3.96h11.952l1.44-2.592H101.088l2.232-4.032h22.752V0Z" fill="#1a1818" fill-rule="evenodd"/>
      <path id="Path_24715" data-name="Path 24715" d="M74.736,0a5.029,5.029,0,0,0-4.32,2.376L67.968,6.7c-1.3,2.592,1.3,2.592,1.3,2.592h8.784c.36,0,.144.36.144.36L76.68,12.384a1.286,1.286,0,0,1-1.08.576h-.792c-.864-.072-.576-.648-.576-.648l.5-.864h-9.36l-1.224,2.16c-1.08,2.16,1.584,2.16,1.584,2.16H81.72c2.376,0,3.672-2.376,3.672-2.376L87.768,9c1.3-2.3-1.44-2.3-1.44-2.3h-9L78.912,3.96a1.839,1.839,0,0,1,1.512-1.152h.72c.792,0,.5.576.5.576l-.72,1.224h9.36l1.3-2.448C92.808,0,90.216,0,90.216,0Z" fill="#1a1818" fill-rule="evenodd"/>
      <path id="Path_24716" data-name="Path 24716" d="M57.672,2.808c1.08,0,.72.648.72.648l-4.9,8.928a1.881,1.881,0,0,1-1.584.864H50.688c-1.3,0-.936-.792-.936-.792l4.9-8.784A1.4,1.4,0,0,1,55.8,2.808ZM50.688,0C47.808,0,46.3,2.808,46.3,2.808L40.608,13.1c-1.44,2.664,1.152,2.664,1.152,2.664H57.744c2.664,0,4.1-2.664,4.1-2.664l5.688-10.3C69.048,0,66.384,0,66.384,0Z" fill="#1a1818" fill-rule="evenodd"/>
      <path id="Path_24717" data-name="Path 24717" d="M33.7,15.768s2.88,0,3.96-2.16L39.6,10.152a1.931,1.931,0,0,0-.5-2.3A4.4,4.4,0,0,0,41.76,6.12l2.232-4.032C44.712,0,41.976,0,41.976,0h-18L16.632,13.248H0v2.52Zm-7.632-2.52L28.08,9.36H32.4c1.08,0,.5,1.152.5,1.152l-1.08,1.944a1.652,1.652,0,0,1-1.368.792ZM36,2.808c1.008.072.648,1.08.648,1.08L35.64,5.76a2.333,2.333,0,0,1-1.656.864h-4.32l2.088-3.816Z" fill="#1a1818" fill-rule="evenodd"/>
    </g>
  </g>
</svg>
