<svg id="Component_16_87" data-name="Component 16 – 87" xmlns="http://www.w3.org/2000/svg" width="196" height="100" viewBox="0 0 196 100">
  <g id="Rectangle_535" data-name="Rectangle 535" fill="#fff" stroke="#000" stroke-width="1" opacity="0">
    <rect width="196" height="100" rx="20" stroke="none"/>
    <rect x="0.5" y="0.5" width="195" height="99" rx="19.5" fill="none"/>
  </g>
  <g id="Group_22155" data-name="Group 22155" transform="translate(41 30.5)">
    <g id="Group_22155-2" data-name="Group 22155">
      <path id="Path_24668" data-name="Path 24668" d="M133.985,40.622c-.435.84-.771,1.723-1.157,2.586-.416.932-.82,1.871-1.23,2.807a.841.841,0,0,1-.555-.005c.214-.5.421-1,.649-1.494a.514.514,0,0,0-.006-.477c-.47-1.039-.927-2.083-1.388-3.126-.042-.1-.081-.191-.122-.291.492-.12.508-.113.69.294.4.884.79,1.769,1.211,2.713.216-.492.41-.931.6-1.369s.417-.891.577-1.353a.43.43,0,0,1,.541-.339.951.951,0,0,0,.19-.009Z" transform="translate(-19.449 -6.059)"/>
      <path id="Path_24669" data-name="Path 24669" d="M22.532,14.379a8.386,8.386,0,0,1,3.926-2.426,10.549,10.549,0,0,1,6.011-.092,5.712,5.712,0,0,1,4.2,4.776,8.972,8.972,0,0,1,.133,1.661q0,7.23.006,14.461c0,.3-.077.365-.366.363q-3.569-.019-7.136,0c-.3,0-.39-.06-.39-.379q.018-5.608.008-11.215a4.867,4.867,0,0,0-.11-1.116,2.4,2.4,0,0,0-2.245-1.927,4.173,4.173,0,0,0-3.868,1.407.663.663,0,0,0-.177.487q.006,6.2.009,12.4c0,.256-.044.341-.324.339q-3.616-.019-7.233,0c-.27,0-.333-.073-.332-.338q.011-10.219,0-20.438c0-.256.052-.344.328-.342q3.632.017,7.264,0c.248,0,.3.067.3.3-.017.669-.006,1.338-.006,2.071" transform="translate(-2.189 -1.713)"/>
      <path id="Path_24670" data-name="Path 24670" d="M81.122,33.642a18.629,18.629,0,0,1-8.7-2.3,11.81,11.81,0,0,1-1.176-.778c-.149-.109-.177-.193-.075-.362.98-1.63,1.957-3.262,2.918-4.9.145-.248.228-.1.354-.02a14.759,14.759,0,0,0,7.283,2.489,4.761,4.761,0,0,0,1.307-.105,1.446,1.446,0,0,0,.584-.252.572.572,0,0,0-.065-1.016,5.378,5.378,0,0,0-1.826-.457,32.685,32.685,0,0,1-4.635-.84,7.7,7.7,0,0,1-3.7-2.129,5.89,5.89,0,0,1-1.448-4.014c-.031-3.051,1.537-5.09,4.185-6.392A11.2,11.2,0,0,1,80.784,11.5a16.574,16.574,0,0,1,9.462,2.52c.218.136.255.222.122.454-.874,1.518-1.732,3.046-2.588,4.575-.111.2-.167.265-.4.1a10.245,10.245,0,0,0-6.043-2.01,2.793,2.793,0,0,0-1.449.348c-.219.127-.429.29-.423.563.007.294.267.4.5.481a12.28,12.28,0,0,0,2.358.458,19.71,19.71,0,0,1,5.03,1.225,6.069,6.069,0,0,1,3.72,3.823,6.67,6.67,0,0,1-3.807,8.443,14.175,14.175,0,0,1-6.143,1.162" transform="translate(-10.624 -1.717)"/>
      <path id="Path_24671" data-name="Path 24671" d="M54.752,24.1l2.73-8.093c.409-1.214.825-2.425,1.221-3.643a.329.329,0,0,1,.384-.268q3.857.011,7.715,0c.265,0,.3.049.206.3Q63.019,22.665,59.049,32.94a.366.366,0,0,1-.414.274q-3.874-.011-7.747,0a.37.37,0,0,1-.411-.287q-3.971-10.276-7.956-20.546c-.078-.2-.092-.284.181-.283q3.889.015,7.779,0c.281,0,.309.156.369.336l3.8,11.406c.023.07.052.139.1.266" transform="translate(-6.346 -1.807)"/>
      <path id="Path_24672" data-name="Path 24672" d="M110.733,25.377l1.11,4.712c.076.322.138.649.233.965a.354.354,0,0,1-.177.452,6.529,6.529,0,0,1-2.589.983,12.211,12.211,0,0,1-5.5-.155,5.544,5.544,0,0,1-4.183-4.939,16.79,16.79,0,0,1-.1-1.825c0-2.431-.006-4.863.007-7.294,0-.286-.074-.358-.356-.352-.954.018-1.907,0-2.861.012-.229,0-.286-.067-.285-.29q.011-3.132,0-6.265c0-.258.094-.3.317-.294.954.01,1.907,0,2.861.01.253,0,.325-.069.323-.323-.011-1.692,0-3.385-.011-5.076,0-.265.037-.365.342-.362q3.615.022,7.231,0c.246,0,.322.053.321.312-.013,1.714,0,3.427-.012,5.141,0,.235.052.309.3.306,1.221-.014,2.443,0,3.664-.011.245,0,.331.053.33.317q-.018,3.1,0,6.2c0,.276-.086.336-.345.333-1.221-.013-2.443,0-3.664-.011-.227,0-.284.061-.283.285.009,1.853,0,3.706.008,5.559a1.975,1.975,0,0,0,.775,1.683,2.041,2.041,0,0,0,1.663.24,2.566,2.566,0,0,0,.884-.316" transform="translate(-14.348 -0.797)" fill="#f16622"/>
      <path id="Path_24673" data-name="Path 24673" d="M119.086,22.412c0-1.36-.014-2.721.009-4.081.006-.35-.106-.415-.426-.408-.931.02-1.865,0-2.8.011-.2,0-.275-.044-.274-.263q.011-3.165,0-6.33c0-.236.1-.255.284-.254.965.006,1.928-.007,2.893.009.26,0,.317-.079.316-.325-.01-1.692,0-3.385-.011-5.077,0-.267.042-.362.343-.361q3.6.023,7.2,0c.313,0,.36.1.357.379-.011,1.682,0,3.363-.012,5.045,0,.264.064.343.334.339,1.21-.014,2.422,0,3.632-.011.232,0,.311.048.31.3q-.015,3.132,0,6.265c0,.226-.065.288-.288.286-1.232-.01-2.464,0-3.7-.009-.22,0-.291.051-.29.282.01,1.874,0,3.749.008,5.623a1.775,1.775,0,0,0,1.661,1.924,2.923,2.923,0,0,0,1.438-.269c.157-.073.22-.1.27.115q.637,2.767,1.3,5.528a.281.281,0,0,1-.147.34,5.854,5.854,0,0,1-2.326.957,11.816,11.816,0,0,1-6.122-.2,5.424,5.424,0,0,1-3.845-4.652,10.873,10.873,0,0,1-.122-1.76c0-1.135,0-2.27,0-3.406" transform="translate(-17.271 -0.797)" fill="#f16622"/>
      <path id="Path_24674" data-name="Path 24674" d="M.369,22.68q0-5.127-.007-10.252c0-.275.074-.329.336-.328q3.616.015,7.233,0c.251,0,.321.061.321.317q-.01,10.236,0,20.472c0,.278-.085.328-.343.327q-3.616-.014-7.233,0c-.256,0-.314-.068-.314-.317q.013-5.11.006-10.22" transform="translate(-0.054 -1.808)"/>
      <path id="Path_24675" data-name="Path 24675" d="M92.859,40.53c-.423.847-.812,1.628-1.2,2.41-.2.4-.393.806-.6,1.206-.041.081-.054.2-.176.2s-.134-.127-.174-.207q-.847-1.691-1.688-3.385c-.028-.056-.058-.111-.132-.253-.074.529-.138.972-.2,1.416-.1.732-.219,1.46-.293,2.195-.033.319-.231.238-.4.239-.265,0-.142-.2-.128-.3.227-1.642.466-3.283.7-4.924.008-.062-.006-.15.067-.166.12-.026.124.1.157.164q.981,1.965,1.955,3.932c.037.074.08.146.149.272.35-.714.68-1.385,1.01-2.057.349-.709.694-1.42,1.046-2.128.035-.071.047-.2.149-.187s.079.132.091.21q.35,2.4.7,4.795c.058.4.045.4-.317.4-.164,0-.187-.074-.206-.208-.14-1.039-.288-2.077-.433-3.116-.02-.145-.044-.288-.077-.51" transform="translate(-13.122 -5.821)"/>
      <path id="Path_24676" data-name="Path 24676" d="M61.226,41.151c1.022-1.129,2.318-.728,2.616.209a3.447,3.447,0,0,1,.464-.533,1.473,1.473,0,0,1,1.534-.265,1.293,1.293,0,0,1,.8,1.216c.07.865.01,1.733.035,2.6.007.253-.157.192-.3.2-.169.014-.249-.027-.247-.224.008-.76,0-1.52-.008-2.28-.01-.661-.251-1.01-.726-1.087a1.212,1.212,0,0,0-1.327.828,3.436,3.436,0,0,0-.132,1.078c0,.461-.005.921,0,1.381,0,.186.009.31-.255.314-.28,0-.274-.129-.276-.33-.007-.781.032-1.563-.024-2.343a.879.879,0,0,0-.632-.9,1.105,1.105,0,0,0-1.178.4,1.493,1.493,0,0,0-.338.981c-.012.642-.018,1.284-.006,1.927,0,.218-.071.265-.275.266s-.274-.058-.272-.27q.013-1.749,0-3.5c0-.2.05-.281.269-.274.2.007.308.036.276.263a2.759,2.759,0,0,0,0,.344" transform="translate(-9.067 -6.044)"/>
      <path id="Path_24677" data-name="Path 24677" d="M116.548,41.64c0-.814.006-1.627-.005-2.441,0-.209.054-.276.269-.273q1.285.018,2.57,0c.233,0,.282.077.282.293s-.062.269-.27.265c-.686-.013-1.371,0-2.056-.01-.2,0-.256.051-.247.249.015.4.017.793,0,1.188-.009.208.063.246.253.243.685-.011,1.371.005,2.056-.01.214,0,.25.078.241.261s.011.305-.243.3c-.685-.018-1.37,0-2.056-.01-.2,0-.255.05-.249.249q.019.8,0,1.606c-.006.195.043.256.246.252.675-.014,1.349.006,2.024-.011.236-.005.286.078.282.293,0,.2-.043.28-.267.276q-1.285-.02-2.57,0c-.228,0-.264-.083-.262-.278.008-.814,0-1.627,0-2.441" transform="translate(-17.412 -5.816)"/>
      <path id="Path_24678" data-name="Path 24678" d="M1.753,44.457A1.752,1.752,0,0,1,.318,43.422c-.108-.187.064-.2.145-.239.1-.045.2-.255.338-.043a3.025,3.025,0,0,0,.309.408.992.992,0,0,0,1.455.083.908.908,0,0,0-.088-1.362A14.349,14.349,0,0,0,1.2,41.2,1.42,1.42,0,0,1,.61,39.852a1.342,1.342,0,0,1,2.171-.8c.128.1.226.228.349.331.237.2.191.338-.053.5-.155.1-.231.088-.333-.052a1.089,1.089,0,0,0-.665-.47.723.723,0,0,0-.771.268.687.687,0,0,0-.013.812,1.926,1.926,0,0,0,.571.554,6.385,6.385,0,0,1,1.19,1.022,1.425,1.425,0,0,1,.253,1.556,1.588,1.588,0,0,1-1.556.885" transform="translate(-0.042 -5.79)"/>
      <path id="Path_24679" data-name="Path 24679" d="M75.341,41.243a2.049,2.049,0,0,1,.241-.331,1.616,1.616,0,0,1,1.7-.356A1.407,1.407,0,0,1,78.2,41.9c.077.823.017,1.648.044,2.471.008.215-.108.212-.259.211s-.289.018-.287-.219c.007-.716,0-1.434-.018-2.15-.025-.853-.339-1.243-.993-1.272a1.425,1.425,0,0,0-1.391,1.3c-.063.684-.032,1.369-.029,2.054,0,.212-.041.3-.278.3s-.27-.1-.269-.305q.011-1.735,0-3.47c0-.21.057-.275.27-.271s.3.046.277.265a.63.63,0,0,0,.075.433" transform="translate(-11.164 -6.044)"/>
      <path id="Path_24680" data-name="Path 24680" d="M38.753,41.222a1.918,1.918,0,0,1,1.415-.755,1.384,1.384,0,0,1,1.5,1.276c.1.885.026,1.775.046,2.663.005.24-.166.164-.29.178-.161.017-.257-.011-.253-.216.013-.653.005-1.307,0-1.96,0-.139,0-.279-.011-.418a1.045,1.045,0,0,0-1.664-.864,1.414,1.414,0,0,0-.718,1.151c-.054.674-.024,1.348-.021,2.023,0,.219-.054.293-.284.293s-.265-.077-.263-.279q.013-1.751,0-3.5c0-.221.076-.261.276-.265s.292.062.268.271c-.012.1,0,.212,0,.4" transform="translate(-5.709 -6.046)"/>
      <path id="Path_24681" data-name="Path 24681" d="M22.8,42.016c0-.465.011-.851,0-1.235-.009-.21.1-.22.256-.215s.3-.028.289.215c-.026.79.035,1.583-.036,2.373a1.539,1.539,0,0,1-1.545,1.528c-1.107.042-1.727-.411-1.874-1.405a20.455,20.455,0,0,1-.052-2.564c-.005-.253.2-.116.312-.141.138-.031.215.017.213.184q-.01.915,0,1.83a5.007,5.007,0,0,0,.047.638,1.081,1.081,0,0,0,1.115.944,1.1,1.1,0,0,0,1.231-.885,7.793,7.793,0,0,0,.048-1.266" transform="translate(-2.961 -6.059)"/>
      <path id="Path_24682" data-name="Path 24682" d="M55.011,44.667a1.492,1.492,0,0,1-1.029-.378c-.145-.118-.173-.216-.026-.358.119-.116.181-.228.369-.054a.834.834,0,0,0,1.106.15.586.586,0,0,0,.029-1c-.257-.188-.551-.325-.823-.494a1.107,1.107,0,0,1-.623-1.2,1.09,1.09,0,0,1,1.476-.815,2.43,2.43,0,0,1,.532.292c.224.143.178.261.005.415-.11.1-.176.115-.288.01a.974.974,0,0,0-.537-.268.584.584,0,0,0-.669.325.507.507,0,0,0,.213.671c.27.189.57.336.848.515a1.139,1.139,0,0,1,.5,1.564,1.16,1.16,0,0,1-1.082.618" transform="translate(-8.047 -6.044)"/>
      <path id="Path_24683" data-name="Path 24683" d="M45.064,43.463c.4-.869.762-1.665,1.125-2.462.2-.45.2-.451.7-.423.07.091-.014.162-.045.229q-.806,1.78-1.625,3.555c-.038.083-.049.217-.159.217s-.119-.136-.157-.218Q44.1,42.616,43.3,40.867c-.04-.087-.191-.24-.043-.28s.39-.132.516.093c.1.176.174.367.259.551l1.033,2.232" transform="translate(-6.453 -6.056)"/>
      <path id="Path_24684" data-name="Path 24684" d="M127.941,44.668a1.519,1.519,0,0,1-1.018-.4c-.179-.153-.081-.241.021-.36s.169-.195.321-.042a.906.906,0,0,0,.813.293.662.662,0,0,0,.579-.486.58.58,0,0,0-.287-.686c-.28-.176-.573-.331-.854-.507a1.085,1.085,0,0,1,.885-1.97,1.26,1.26,0,0,1,.558.3c.071.071.324.1.14.294-.123.133-.237.325-.453.093a.809.809,0,0,0-.3-.177.646.646,0,0,0-.84.252c-.142.259-.053.529.284.757.265.179.555.32.823.5a1.1,1.1,0,0,1,.528,1.319,1.163,1.163,0,0,1-1.2.823" transform="translate(-18.948 -6.044)"/>
      <path id="Path_24685" data-name="Path 24685" d="M5.611,42.559c0-.46-.022-.921.008-1.38.02-.322-.071-.447-.4-.4-.123.017-.312.086-.319-.178-.006-.213.039-.3.278-.3.433.015.434,0,.434-.438,0-.267.014-.536,0-.8-.015-.221.094-.241.27-.236s.29-.006.277.228c-.02.341.005.685-.009,1.027-.008.185.054.25.235.23.105-.012.214.006.321,0,.179-.017.272.02.271.236s-.083.244-.266.244c-.556,0-.556.009-.556.575,0,.9-.008,1.8.005,2.7,0,.224-.059.288-.284.29s-.267-.083-.263-.28c.01-.5,0-1.005,0-1.508" transform="translate(-0.732 -5.801)"/>
      <path id="Path_24686" data-name="Path 24686" d="M80.522,42.573c0-.492-.014-.984.006-1.475.01-.254-.066-.334-.321-.325-.119,0-.339.14-.372-.147-.027-.242.045-.366.308-.316.3.057.419-.054.385-.372-.031-.286.009-.578-.012-.865-.018-.248.119-.238.293-.247.2-.009.265.052.254.252-.016.309.016.622-.01.93-.023.268.085.336.322.3.073-.01.15,0,.225,0,.164-.013.28-.006.283.224s-.1.255-.289.254c-.535,0-.535,0-.535.532,0,.919-.006,1.839.005,2.758,0,.214-.063.27-.272.269s-.282-.048-.276-.266c.014-.5,0-1,0-1.507" transform="translate(-11.927 -5.801)"/>
      <path id="Path_24687" data-name="Path 24687" d="M17.306,42.56V41.245c0-.447,0-.456-.447-.459-.174,0-.24-.042-.248-.231-.009-.236.106-.277.29-.246.336.058.447-.077.41-.408-.029-.265.005-.535-.009-.8-.011-.2.04-.279.262-.279s.3.068.284.291c-.017.32.005.641-.008.962-.007.177.043.258.231.236.105-.013.214,0,.321,0,.171-.013.277.005.273.231,0,.2-.065.25-.258.25-.563,0-.563.01-.563.574,0,.9-.007,1.8.005,2.695,0,.222-.058.291-.285.291s-.268-.077-.263-.279c.013-.5,0-1,0-1.507" transform="translate(-2.482 -5.8)"/>
      <path id="Path_24688" data-name="Path 24688" d="M58.1,42.52c0-.46-.02-.921.008-1.379.018-.3-.085-.391-.374-.367-.123.009-.338.117-.345-.178-.006-.212.036-.3.275-.294.436.016.437,0,.437-.436,0-.246.009-.492,0-.738-.01-.2.008-.31.262-.308s.28.093.27.3c-.015.321.006.642-.008.962-.009.185.052.25.233.229.105-.012.214,0,.321,0,.159-.008.28-.014.285.22s-.1.257-.286.257c-.549,0-.549.006-.549.547,0,.919-.005,1.839,0,2.758,0,.195-.046.263-.248.253-.182-.009-.3-.013-.287-.252.019-.523.006-1.048.006-1.572" transform="translate(-8.574 -5.8)"/>
      <path id="Path_24689" data-name="Path 24689" d="M36.224,41.63c0-.813.009-1.625-.005-2.439,0-.219.068-.268.271-.268s.3.037.3.278q-.017,2.438,0,4.876c0,.231-.076.28-.292.284-.236.005-.281-.078-.277-.293.011-.813,0-1.625,0-2.439" transform="translate(-5.411 -5.815)"/>
      <path id="Path_24690" data-name="Path 24690" d="M14.578,41.075c.325-.375.631-.655,1.1-.6.132.016.361.005.322.188-.032.149-.084.4-.4.338a.759.759,0,0,0-.812.493,3.293,3.293,0,0,0-.226,1.473c-.016.458-.018.919,0,1.378.011.253-.128.235-.3.242s-.264-.023-.262-.238c.011-1.176.009-2.351,0-3.527,0-.2.033-.284.258-.276.2.007.333.031.3.275a1.647,1.647,0,0,0,.014.253" transform="translate(-2.093 -6.046)"/>
      <path id="Path_24691" data-name="Path 24691" d="M32.374,44.8a.444.444,0,0,1-.47.452.456.456,0,0,1,0-.911.451.451,0,0,1,.466.459" transform="translate(-4.701 -6.624)"/>
      <path id="Path_24692" data-name="Path 24692" d="M84.164,44.782a.43.43,0,0,1-.451.465.456.456,0,0,1-.018-.911.428.428,0,0,1,.469.446" transform="translate(-12.439 -6.624)"/>
      <path id="Path_24693" data-name="Path 24693" d="M106.167,39.032c0-.191-.023-.289-.255-.285s-.3.054-.291.285c.015.619.005,1.239.005,1.91a2.082,2.082,0,0,0-2.966-.2,2.144,2.144,0,0,0-.316,2.776,1.958,1.958,0,0,0,1.206.845,2.082,2.082,0,0,0,2.061-.663,3.184,3.184,0,0,1,.013.325c-.016.2.009.315.265.31.232-.005.281-.077.28-.3q-.013-2.5,0-5.009m-2.06,4.908a1.637,1.637,0,0,1-1.591-1.61,1.582,1.582,0,0,1,1.574-1.6,1.539,1.539,0,0,1,1.57,1.59,1.565,1.565,0,0,1-1.553,1.623" transform="translate(-15.236 -5.789)"/>
      <path id="Path_24694" data-name="Path 24694" d="M29.12,41.387a2.005,2.005,0,0,0-1.574-.919,1.971,1.971,0,0,0-1.72.779,4.066,4.066,0,0,1,0-.446c.031-.236-.1-.248-.286-.253s-.26.041-.259.248c.01,1.733.009,3.466.01,5.2.5.038.5.038.5-.458,0-.467,0-.935,0-1.4,0-.062-.052-.215.12-.117a2.019,2.019,0,0,0,2.8.18,2.142,2.142,0,0,0,.4-2.812M27.369,44.2a1.567,1.567,0,0,1-1.575-1.631,1.538,1.538,0,0,1,1.576-1.581,1.579,1.579,0,0,1,1.563,1.61,1.634,1.634,0,0,1-1.564,1.6" transform="translate(-3.778 -6.045)"/>
      <path id="Path_24695" data-name="Path 24695" d="M12.187,40.75c0-.124-.025-.192-.175-.2-.247-.013-.429.008-.367.331a2.034,2.034,0,0,1,0,.339,2.053,2.053,0,0,0-3.009-.174,2.165,2.165,0,0,0-.119,2.937,2.093,2.093,0,0,0,3.128-.022c0,.155.01.279,0,.4-.021.2.074.24.244.225.141-.014.3.048.3-.2-.009-1.21,0-2.42,0-3.63M10.093,44.2a1.624,1.624,0,0,1-1.551-1.644,1.575,1.575,0,1,1,3.149.056,1.592,1.592,0,0,1-1.6,1.588" transform="translate(-1.196 -6.046)"/>
      <path id="Path_24696" data-name="Path 24696" d="M100.12,40.745c0-.132-.036-.184-.179-.195-.258-.02-.417.025-.364.337a.34.34,0,0,1-.031.274c-1.124-.885-2.172-.92-2.993-.1a2.151,2.151,0,0,0-.188,2.813,1.959,1.959,0,0,0,1.221.77,2.036,2.036,0,0,0,1.946-.663.811.811,0,0,1,.046.422c-.009.236.157.178.286.181s.259.033.257-.177q-.009-1.831,0-3.661M98.042,44.2a1.646,1.646,0,0,1-1.578-1.627,1.587,1.587,0,0,1,1.595-1.586,1.542,1.542,0,0,1,1.555,1.606A1.568,1.568,0,0,1,98.042,44.2" transform="translate(-14.332 -6.046)"/>
      <path id="Path_24697" data-name="Path 24697" d="M69.6,42.6c.491.028.985.008,1.477.008.525,0,1.05-.006,1.575,0,.176,0,.242-.034.227-.231a2.051,2.051,0,0,0-2.568-1.87,1.954,1.954,0,0,0-1.5,1.548,2.053,2.053,0,0,0,.723,2.192,2.105,2.105,0,0,0,2.188.249,1.906,1.906,0,0,0,.953-.871c.07-.117.056-.174-.061-.252-.2-.134-.321-.133-.473.094a1.516,1.516,0,0,1-1.675.669,1.439,1.439,0,0,1-1.134-1.175c-.057-.224-.057-.384.27-.365m1.152-1.628a1.48,1.48,0,0,1,1.483.954c.059.163.051.225-.146.224-.9-.008-1.8,0-2.713,0a1.414,1.414,0,0,1,1.377-1.175" transform="translate(-10.27 -6.043)"/>
      <path id="Path_24698" data-name="Path 24698" d="M49.076,42.6c.514.02,1.028.006,1.542.006.536,0,1.072,0,1.608,0,.139,0,.216-.016.2-.194a2.221,2.221,0,0,0-.547-1.308A2.124,2.124,0,0,0,49.34,40.7a2.179,2.179,0,0,0-.982,2.465,1.981,1.981,0,0,0,1.633,1.488,2.085,2.085,0,0,0,2.2-.994c.072-.125.111-.2-.057-.293-.222-.129-.326-.094-.47.12a1.579,1.579,0,0,1-1.713.655,1.545,1.545,0,0,1-1.1-1.252c-.029-.187-.016-.294.23-.285m1.238-1.631a1.472,1.472,0,0,1,1.45.954c.058.162.054.227-.145.225-.9-.007-1.8,0-2.718,0a1.436,1.436,0,0,1,1.412-1.177" transform="translate(-7.213 -6.043)"/>
      <path id="Path_24699" data-name="Path 24699" d="M108.846,42.6c.5.017,1.006.005,1.51.005s1.006-.013,1.508.006c.24.009.315-.045.284-.3a2.074,2.074,0,0,0-4.139.212,2.116,2.116,0,0,0,1.368,2.046,2.164,2.164,0,0,0,2.495-.826c.144-.213.141-.313-.107-.441s-.271.06-.354.172a1.555,1.555,0,0,1-1.714.655,1.455,1.455,0,0,1-1.112-1.233c-.058-.259.022-.305.261-.3m1.284-1.632a1.4,1.4,0,0,1,1.406,1.164h-2.9a1.436,1.436,0,0,1,1.491-1.164" transform="translate(-16.137 -6.043)"/>
      <path id="Path_24700" data-name="Path 24700" d="M125.153,40.772c0-.163-.04-.215-.213-.225-.248-.014-.358.054-.318.315a2.819,2.819,0,0,1,0,.378,2.052,2.052,0,0,0-2.99-.232,2.16,2.16,0,0,0-.217,2.885c.787.991,1.846,1.028,3.207.091a3.659,3.659,0,0,1,0,.388c-.029.247.135.206.284.215.166.009.249-.019.248-.219-.009-1.2-.007-2.4,0-3.6M123.068,44.2a1.656,1.656,0,0,1-1.57-1.607,1.589,1.589,0,0,1,1.609-1.607,1.533,1.533,0,0,1,1.54,1.618,1.565,1.565,0,0,1-1.579,1.6" transform="translate(-18.073 -6.046)"/>
      <path id="Path_24701" data-name="Path 24701" d="M8.506,4.253A4.253,4.253,0,1,1,4.253,0,4.253,4.253,0,0,1,8.506,4.253" fill="#f16622"/>
    </g>
  </g>
</svg>
