<svg id="Component_16_83" data-name="Component 16 – 83" xmlns="http://www.w3.org/2000/svg" width="196" height="100" viewBox="0 0 196 100">
  <g id="Rectangle_535" data-name="Rectangle 535" fill="#fff" stroke="#000" stroke-width="1" opacity="0">
    <rect width="196" height="100" rx="20" stroke="none"/>
    <rect x="0.5" y="0.5" width="195" height="99" rx="19.5" fill="none"/>
  </g>
  <g id="Group_22156" data-name="Group 22156" transform="translate(45 25.5)">
    <g id="Group_22157" data-name="Group 22157">
      <path id="Path_24702" data-name="Path 24702" d="M95.362,1.006A59.986,59.986,0,0,1,109.508.052a65.35,65.35,0,0,1,11.523,1.439A27.2,27.2,0,0,1,132.2,7.119a8.7,8.7,0,0,1,2.589,3.411,7.657,7.657,0,0,1-1.247,7.637,16.11,16.11,0,0,1-4.529,3.878,39.054,39.054,0,0,1-10.22,3.548,68.3,68.3,0,0,1-17.107,1.715,12.477,12.477,0,0,1,1.546-2.886c1.568-2.6,3.351-5.071,4.979-7.637,3.3-4.807,7.076-9.255,10.612-13.885a60.053,60.053,0,0,0-7.682,6.951c-2.116,2.281-4.376,4.438-6.312,6.878-2.622,3.4-5.251,6.8-7.756,10.289a38.176,38.176,0,0,1-6.345-1.049,39.09,39.09,0,0,1,5.4-6.255c1.624-1.67,3.356-3.231,5.032-4.849a142.293,142.293,0,0,1,12.186-9.4c1.217-.872,2.524-1.634,3.66-2.613a111.481,111.481,0,0,0-10.013,5.242,76.576,76.576,0,0,0-12.255,8.716c-2.988,2.4-5.772,5.032-8.518,7.7-.366.38-.911.069-1.331-.024a17.439,17.439,0,0,1-8.3-6.114,6.858,6.858,0,0,1-.65-6.587,15.786,15.786,0,0,1,7.172-6.9A49.2,49.2,0,0,1,95.362,1.006m4.559.617A65.054,65.054,0,0,0,87.09,4.707C84.2,5.786,81.378,7.674,80.122,10.6a4.98,4.98,0,0,0,.288,4.547,3.15,3.15,0,0,0,3.036,1.918,13.933,13.933,0,0,0,3.887-1.639c2.047-1.2,4.226-2.158,6.33-3.258a224.44,224.44,0,0,1,20.7-9.252,7.1,7.1,0,0,0,2.086-.917,74.541,74.541,0,0,0-16.529-.372m14.293,11.6c-1.013,2.074-2.221,4.052-3.12,6.18-.273.845-.72,1.864-.147,2.685a2.673,2.673,0,0,0,2.164.321,40.671,40.671,0,0,0,8.056-2.215,20.511,20.511,0,0,0,7.034-4.376,6.933,6.933,0,0,0,2.071-4.3,5.874,5.874,0,0,0-2.542-4.741,21.507,21.507,0,0,0-7.7-3.81,116.5,116.5,0,0,0-5.817,10.253" transform="translate(-52.797 0)" fill="#db3f28"/>
      <path id="Path_24703" data-name="Path 24703" d="M0,116.391c.147-1.034.56-2.527,1.867-2.479,1.208.042,2.58-.3,3.671.33.357.773.1,1.705.234,2.539.674-.875.77-2.263,1.843-2.764a13.814,13.814,0,0,1,4.112.006c1.256.312,1.621,1.666,1.96,2.739.429-.671.716-1.417,1.094-2.116.438-.86,1.567-.71,2.374-.749,1.121.1,2.476-.189,3.36.683.944.83.974,2.194.986,3.356-.042,2.892.042,5.785-.042,8.677,0,1.328-1.639.854-2.5,1-.785-.084-2.143.3-2.4-.738-.252-2.733.084-5.5-.153-8.233-.273-1.2-1.846-.776-2.751-.929-.033,2.775.012,5.55-.015,8.326-.021.485-.015,1.112-.489,1.4a9.037,9.037,0,0,1-4.025.069,1.411,1.411,0,0,1-.489-1.181c-.06-2.236.078-4.477-.051-6.71-.087-.6-.042-1.4-.662-1.735a10.033,10.033,0,0,0-2.14-.165c-.213,2.961-.006,5.934-.1,8.9-.021.351-.033.911-.539.866a18.122,18.122,0,0,1-4.07-.072c-.411-3.237-.084-6.525-.132-9.779.006-.585-.6-.863-.941-1.241" transform="translate(0 -79.732)" fill="#6f6f71"/>
      <path id="Path_24704" data-name="Path 24704" d="M119.71,116.6c.4-.857.563-2.209,1.687-2.386a11.248,11.248,0,0,1,4.043.123,44.828,44.828,0,0,1,.2,5.566c.414-.636.65-1.469,1.331-1.876a11.564,11.564,0,0,1,3.342-.126,2.1,2.1,0,0,1,1.843,2.275c-.021,2.491.078,4.987-.078,7.475a24.173,24.173,0,0,1-4.007-.012c-.129-2.068.105-4.148-.126-6.2-.087-.905-1.342-.968-1.963-.561a2.614,2.614,0,0,0-.423,1.7c-.03,1.691.078,3.384-.069,5.068a11.536,11.536,0,0,1-4.349.024c-.48-.3-.332-.977-.39-1.453.048-2.709.153-5.419.075-8.128.1-.743-.651-1.079-1.121-1.481" transform="translate(-83.832 -79.894)" fill="#6f6f71"/>
      <path id="Path_24705" data-name="Path 24705" d="M169.073,114.365a11.609,11.609,0,0,1,4.109-.036,6.126,6.126,0,0,1-.03,2.577,14.83,14.83,0,0,1-4.169-.018,5.1,5.1,0,0,1,.091-2.524" transform="translate(-118.255 -79.948)" fill="#6f6f71"/>
      <path id="Path_24706" data-name="Path 24706" d="M240.927,116.778c.318-.9.611-2.242,1.75-2.344a13.8,13.8,0,0,1,3.483.066c.947.312.629,1.52.7,2.281-.138,3.686-.075,7.376-.114,11.065-1.558.015-3.12.057-4.678.009-.084-.794-.111-1.588-.12-2.385a11.818,11.818,0,0,1-.947,1.942c-.435.632-1.295.44-1.948.524-1.166-.024-2.6.2-3.429-.833-1.337-1.513-.791-3.689-.914-5.523a3.073,3.073,0,0,1,1.978-3.261c1.751-.542,3.62-.09,5.419-.312a11.226,11.226,0,0,1-1.184-1.229m.153,3.824c-.605.225-1.511.27-1.7,1.025a3.269,3.269,0,0,0,.243,2.694c.539.737,1.559.375,2.334.461.01-2.188.036-4.378-.009-6.566a19.741,19.741,0,0,0-.872,2.386" transform="translate(-164.355 -80.083)" fill="#6f6f71"/>
      <path id="Path_24707" data-name="Path 24707" d="M78.3,128.986c.246-.917.495-2.206,1.52-2.521,2.485-.18,4.981.03,7.469.033a2.107,2.107,0,0,1,2.281,2.017c.027,2.53.018,5.071-.1,7.595-1.217.5-2.676.168-3.983.144a21.705,21.705,0,0,1-.126-3.77,2.469,2.469,0,0,0-1.621-.315.842.842,0,0,0-.566,1.307,7.309,7.309,0,0,0,2.1.438,5.582,5.582,0,0,1-1.406,2.3,9.161,9.161,0,0,1-4.22-.075c-2.17-1.394-1.6-5.614,1.067-6.078,1.484-.135,2.982.015,4.469-.126.018-.2.051-.593.069-.788-2.317-.069-4.636.009-6.95-.159" transform="translate(-54.833 -88.511)" fill="#6f6f71"/>
      <path id="Path_24708" data-name="Path 24708" d="M167.491,126.7a8.289,8.289,0,0,1,3.488.15c1.313.7.8,2.395.893,3.6-.156,2,.336,4.091-.291,6.021a22.891,22.891,0,0,1-3.512-.081c-.432-.171-.222-.776-.315-1.136-.06-1.69.129-3.4-.09-5.077-.063-.581-.684-.77-1.094-1.064.183-.824.186-1.853.92-2.41" transform="translate(-116.648 -88.647)" fill="#6f6f71"/>
      <path id="Path_24709" data-name="Path 24709" d="M189.129,127.012c.3-.462.914-.3,1.379-.357a5.215,5.215,0,0,1,2.6.36c.665.426.653,1.294.839,1.978a6.443,6.443,0,0,1,1.375-2.083,9.888,9.888,0,0,1,3.591-.18c1.172-.036,1.717,1.277,1.708,2.272q.059,3.722-.012,7.444c-1.34.045-2.679.042-4.019.009-.192-2.059.054-4.133-.129-6.189-.375-1.106-1.807-.755-2.7-.788-.054,1.939,0,3.879-.009,5.818-.09.363.114.971-.321,1.145-1.049.081-2.107.045-3.156.027-.543.1-.6-.509-.629-.884-.111-1.784.093-3.579-.078-5.359-.039-.575-.677-.752-1.064-1.049a5.263,5.263,0,0,1,.629-2.164" transform="translate(-132.005 -88.695)" fill="#6f6f71"/>
      <path id="Path_24710" data-name="Path 24710" d="M313.627,129.449c.177-.986.417-2.548,1.7-2.562,2.352-.06,4.711-.051,7.064,0a2.625,2.625,0,0,1,2.466,1.73v8.3H320.9c-.548-1.325-.285-2.778-.4-4.169-.737-.165-1.648-.324-2.206.336-.363,1.3,1.366.923,2.029,1.481a4.255,4.255,0,0,1-1.478,2.353h-3.5c-2.56-1.1-2.326-5.676.414-6.366,1.549-.222,3.126-.009,4.684-.177-.027-.21-.081-.632-.108-.845-2.239.006-4.484.129-6.716-.081" transform="translate(-219.587 -88.828)" fill="#6f6f71"/>
      <path id="Path_24711" data-name="Path 24711" d="M278.472,128.878c.111-.668.233-1.5.878-1.864a8.822,8.822,0,0,1,3.2.009c.743.12.983.929,1.351,1.472.4-.543.663-1.361,1.415-1.49a12.221,12.221,0,0,1,3.354.054c-.306.839-.5,1.915-1.34,2.386a14.642,14.642,0,0,1-3.552.066c-.111,1.879-.12,3.765-.1,5.647a4.085,4.085,0,0,1-.4,1.78h-1.121a22.03,22.03,0,0,1-2.479-.294c-.285-2.143-.069-4.307-.21-6.459-.347-.4-1.106-.668-.989-1.307" transform="translate(-195.003 -88.847)" fill="#6f6f71"/>
    </g>
  </g>
</svg>
