<svg id="Component_16_85" data-name="Component 16 – 85" xmlns="http://www.w3.org/2000/svg" xmlns:xlink="http://www.w3.org/1999/xlink" width="196" height="100" viewBox="0 0 196 100">
  <defs>
    <clipPath id="clip-path">
      <rect id="Rectangle_5055" data-name="Rectangle 5055" width="117.533" height="19.901" fill="#e32121"/>
    </clipPath>
  </defs>
  <g id="Rectangle_535" data-name="Rectangle 535" fill="#fff" stroke="#000" stroke-width="1" opacity="0">
    <rect width="196" height="100" rx="20" stroke="none"/>
    <rect x="0.5" y="0.5" width="195" height="99" rx="19.5" fill="none"/>
  </g>
  <g id="Group_22162" data-name="Group 22162" transform="translate(39 40.5)">
    <g id="Group_22162-2" data-name="Group 22162" clip-path="url(#clip-path)">
      <path id="Path_24724" data-name="Path 24724" d="M91.852,11.57C90.9,16.734,87.3,18.5,84.064,18.5H66.419V2.712c0-1.089.291-1.259,1.229-1.858L61.015.784a2.09,2.09,0,0,1,1.348,1.841l-.022,15.242a1.827,1.827,0,0,1-1.326,2.026l23.211-.011c6.019.022,8.468-2.288,10.215-4.358A8.706,8.706,0,0,0,95.2,5.578,11.5,11.5,0,0,0,87.365.315,17.894,17.894,0,0,0,84.388,0a16.128,16.128,0,0,0-3.16.315C78.466.97,74.95,2.756,73.342,5.7a8.144,8.144,0,0,0,.4,8.214,9.435,9.435,0,0,0,7.324,4.075l.107-.044c-2.34-1.209-3.526-3.41-4.249-6.373A9.015,9.015,0,0,1,78.746,3.8a8.068,8.068,0,0,1,5.642-2.429A7.711,7.711,0,0,1,89.942,3.7C91.928,5.828,92.261,9.423,91.852,11.57ZM21.076,18.378l-5.911-7.506C21.723,9.826,21.076.642,13.289.642H0C.906.958,1.51,1.415,1.51,2.3V17.887A2.52,2.52,0,0,1,.334,19.881H6.655a2.776,2.776,0,0,1-1.348-1.939V11.188h5.415L17.237,19.9l5.576-.01A5.109,5.109,0,0,1,21.076,18.378ZM10.708,9.793H5.3L5.283,2.058l6.428-.022C16.361,2.058,17.472,9.706,10.708,9.793ZM45.3,2.772c-.474-1.046.086-1.645.906-1.993H38.761c.777.61,1.662,1.057,2.007,2.233l8.4,16.875h1.963L59,2.445A3.681,3.681,0,0,1,60.344.779H55.965A1.372,1.372,0,0,1,56.9,2.827l-5.771,12.8ZM99.5,17.692a2.842,2.842,0,0,1-1.382,2.189h4.24a2.453,2.453,0,0,1-1.315-2.016V4.357l13.234,15.525h1.941V2.6A2.117,2.117,0,0,1,117.533.784h-4.218a2.464,2.464,0,0,1,1.371,1.983l-.022,11.178L103.241.784H97.147C97.794,1.111,99.5,1.819,99.5,3.4ZM38.325.774h-15.4c.733.393,1.4.686,1.4,1.874l-.01,15.3a1.943,1.943,0,0,1-1.165,1.939H39.081l1.5-4.62a7.642,7.642,0,0,1-5.986,3.2l-6.072-.011v-7.67h4.422a2.893,2.893,0,0,1,2.6,1.514V7.747a2.877,2.877,0,0,1-2.61,1.591H28.522V2.114l6.223.021A4.791,4.791,0,0,1,39.071,4.8Z" fill="#e32121" fill-rule="evenodd"/>
    </g>
  </g>
</svg>
