<svg id="Component_16_82" data-name="Component 16 – 82" xmlns="http://www.w3.org/2000/svg" width="196" height="100" viewBox="0 0 196 100">
  <g id="Rectangle_535" data-name="Rectangle 535" fill="#fff" stroke="#000" stroke-width="1" opacity="0">
    <rect width="196" height="100" rx="20" stroke="none"/>
    <rect x="0.5" y="0.5" width="195" height="99" rx="19.5" fill="none"/>
  </g>
  <g id="Group_630" data-name="Group 630" transform="translate(38 30)">
    <path id="Path_1037" data-name="Path 1037" d="M24.764,10.559l-4.4,16.391L15.907,10.559H12.382L7.953,26.95l-4.4-16.391H0L6.175,33.125H9.764l4.428-16.392,4.365,16.392h3.588L28.32,10.559Z" transform="translate(0 -6.227)"/>
    <g id="Group_629" data-name="Group 629" transform="translate(29.965 0)">
      <g id="Group_631" data-name="Group 631">
        <path id="Path_1038" data-name="Path 1038" d="M73.043,10.3l3.557-.29v5.527L76.536,17.6h.13a12.338,12.338,0,0,1,4.591-.905c2.877,0,4.816,1.294,4.816,6.24V32.8H82.516V23.229c0-2.973-1.454-3.361-3.1-3.361a9.87,9.87,0,0,0-2.813.484V32.8H73.043Z" transform="translate(-73.043 -5.902)"/>
        <path id="Path_1039" data-name="Path 1039" d="M113.679,11.268c1.842,0,2.133,1.066,2.133,2.263s-.388,2.3-2.133,2.3-2.1-1.1-2.1-2.3.323-2.263,2.1-2.263m-1.779,6.4h3.556V33.543H111.9Z" transform="translate(-95.769 -6.645)"/>
        <path id="Path_1040" data-name="Path 1040" d="M128.36,26.545h2.425l.485,1.293h.226a6.647,6.647,0,0,1,4.365-1.52,5.961,5.961,0,0,1,.743.032v3.492a13.717,13.717,0,0,0-2-.194,6.19,6.19,0,0,0-2.685.647V42.419H128.36Z" transform="translate(-105.667 -15.521)"/>
        <path id="Path_1041" data-name="Path 1041" d="M152.159,32.8V10.3l3.556-.29V32.8Z" transform="translate(-119.702 -5.902)"/>
        <path id="Path_1042" data-name="Path 1042" d="M212.174,26.318c5.044,0,6.983,2.975,6.983,8.244,0,4.946-1.81,8.18-7.048,8.18s-7.079-3.234-7.079-8.18c0-5.269,2.1-8.244,7.144-8.244m3.362,8.244c0-3.006-.485-5.463-3.329-5.463-2.877,0-3.588,2.361-3.588,5.463,0,2.877.581,5.367,3.428,5.367s3.49-2.361,3.49-5.367" transform="translate(-150.883 -15.521)"/>
        <path id="Path_1043" data-name="Path 1043" d="M251.044,26.318c5.043,0,6.982,2.975,6.982,8.244,0,4.946-1.81,8.18-7.048,8.18s-7.08-3.234-7.08-8.18c0-5.269,2.1-8.244,7.145-8.244m3.362,8.244c0-3.006-.486-5.463-3.329-5.463-2.877,0-3.59,2.361-3.59,5.463,0,2.877.582,5.367,3.428,5.367s3.491-2.361,3.491-5.367" transform="translate(-173.806 -15.521)"/>
        <path id="Path_1044" data-name="Path 1044" d="M283.95,32.8V10.3l3.556-.29V32.8Z" transform="translate(-197.427 -5.902)"/>
        <path id="Path_1045" data-name="Path 1045" d="M167.917,26.544H170.6l.29,1.164a11.142,11.142,0,0,1,4.818-1.391c3.233,0,5.592,2.361,5.592,8.017,0,5.562-2.491,8.31-6.627,8.31a19.73,19.73,0,0,1-3.2-.324v7.273l-3.557.388Zm3.557,12.932c1,.031,1.553.064,2.587.064,2.2,0,3.653-1.163,3.653-5.788,0-3.168-1.293-4.007-3.621-4.007a8.081,8.081,0,0,0-2.619.452Z" transform="translate(-128.996 -15.521)"/>
        <path id="Path_1046" data-name="Path 1046" d="M147.2,1.27C144.539-1.811,136.1.9,126.684,7.415V9.057c8.293-5.9,15.6-8.615,17.7-6.189C147,5.9,140.491,15.8,129.854,24.986s-21.388,14.16-24,11.131c-1.359-1.573-.252-5,2.612-9.22H106.8c-3.546,5.29-4.876,9.734-3.055,11.845,3.32,3.847,15.737-1.417,27.734-11.768S150.517,5.117,147.2,1.27" transform="translate(-90.671 0)" fill="#ffb100"/>
      </g>
    </g>
  </g>
</svg>
